<svg width="690" height="690" viewBox="0 0 690 690" fill="none" xmlns="http://www.w3.org/2000/svg">
<g clip-path="url(#clip0_9_2)">
<path d="M343.816 202.249C348.376 200.669 353.357 201.988 357.536 204.049C360.456 205.929 363.376 207.829 366.646 209.059C366.896 209.529 367.416 210.459 367.666 210.919C367.536 211.229 367.286 211.869 367.156 212.179C369.486 217.479 370.976 223.759 368.716 229.328C367.176 231.208 364.496 231.499 362.326 232.227C362.316 234.917 362.746 237.578 362.976 240.248C367.616 240.998 371.544 237.768 376.134 238.088C376.754 235.518 377.244 232.906 378.066 230.387C379.016 232.057 379.055 233.978 379.066 235.858C380.266 236.198 381.486 236.508 382.714 236.807C382.726 237.268 382.735 238.188 382.735 238.648C402.855 238.768 422.964 238.557 443.085 238.758C443.035 239.446 442.937 240.827 442.897 241.518C443.417 241.518 444.477 241.528 445.005 241.528C444.985 237.869 445.005 234.198 444.995 230.539C445.505 230.518 446.505 230.488 447.005 230.478C447.017 233.358 447.026 236.238 447.056 239.119C447.495 239.659 448.375 240.738 448.817 241.278C449.147 240.887 449.806 240.119 450.135 239.728C451.665 241.159 450.795 243.119 450.727 244.877C456.357 244.816 462.045 245.196 467.657 244.736C468.077 244.426 468.917 243.816 469.337 243.507C470.108 243.806 470.887 244.107 471.657 244.417C474.187 244.355 476.727 244.347 479.267 244.337C479.215 245.647 479.175 246.956 479.125 248.267C475.855 248.216 472.575 248.147 469.355 248.706C467.275 246.917 464.485 247.485 461.975 247.417C458.115 247.597 454.133 246.917 450.395 248.146C448.173 248.766 445.735 248.617 443.775 247.356C443.303 248.526 444.025 251.146 442.053 251.045C434.293 251.146 426.543 250.976 418.793 251.096C417.733 251.656 416.663 252.186 415.605 252.705C414.485 256.045 411.275 258.274 408.543 260.314C408.203 265.444 410.233 270.234 411.023 275.213C409.493 275.652 407.953 276.104 406.443 276.604C404.273 281.724 405.603 288.713 400.583 292.285C396.733 294.524 394.185 299.394 388.993 298.625C391.633 300.825 388.273 300.135 388.623 298.375C379.233 297.545 371.323 292.035 363.163 287.836C362.783 290.135 362.184 292.396 361.563 294.646C364.663 295.236 367.223 297.516 367.773 300.696C368.763 307.627 366.783 314.508 366.813 321.457C367.033 325.537 365.283 329.276 363.103 332.606C361.193 334.766 358.183 332.545 355.893 332.226C355.372 333.236 354.863 334.247 354.363 335.266C355.013 337.985 355.293 340.815 356.203 343.475C361.313 349.125 365.963 355.246 369.533 361.996C373.208 369.64 376.483 377.471 379.344 385.455C379.623 387.006 381.083 387.563 382.365 388.125C382.535 389.725 382.705 391.323 382.865 392.944C383.365 393.674 383.875 394.403 384.395 395.143C384.705 405.004 383.495 414.823 381.963 424.553C381.015 428.944 383.583 433.233 382.543 437.653C382.663 439.916 381.105 441.625 380.373 443.625C380.233 448.295 380.003 453.024 380.515 457.686C380.873 461.106 383.765 463.305 385.725 465.856C387.865 468.127 389.655 471.176 392.895 471.985C395.945 472.895 398.855 474.215 401.543 475.946C402.363 477.975 402.213 480.127 401.823 482.235C395.963 483.315 389.983 482.776 384.063 482.867C379.501 483.106 375.433 480.656 371.001 480.145C366.711 480.037 361.481 482.166 358.183 478.326C359.581 472.998 359.693 467.276 362.251 462.305C363.071 456.676 361.513 450.965 361.841 445.285C361.353 444.875 360.371 444.055 359.881 443.643C360.233 439.934 358.402 436.633 357.791 433.084C357.393 427.901 356.921 422.723 356.321 417.563C355.851 415.053 357.151 412.754 358.921 411.084C359.081 408.184 359.473 405.313 359.751 402.434C359.321 400.563 357.831 399.174 356.871 397.574C353.661 398.926 349.331 398.285 347.421 395.143C342.892 388.404 338.371 381.664 333.791 374.963C331.991 374.844 330.091 375.033 328.411 374.313C326.473 372.324 325.461 369.674 324.223 367.254C322.452 369.244 322.581 372.293 320.483 374.104C316.043 378.365 314.863 384.625 312.543 390.084C310.765 393.623 311.765 397.893 309.783 401.344C308.723 403.203 306.063 403.573 305.363 405.695C304.443 407.983 303.363 410.354 301.213 411.746C298.883 413.274 298.264 416.176 297.225 418.574C296.275 420.785 297.685 423.104 297.355 425.375C295.875 432.586 291.285 438.615 289.355 445.676C288.475 448.856 287.214 452.436 283.514 453.115C279.304 460.635 276.985 469.836 279.365 478.303C280.825 480.963 280.745 483.953 280.295 486.883C273.606 487.404 266.745 488.303 260.176 486.434C258.636 483.383 258.856 479.793 259.176 476.496C261.205 467.824 263.896 459.305 265.545 450.545C263.485 448.715 263.966 445.916 264.005 443.465C263.936 438.895 267.045 435.235 269.205 431.485C270.016 427.635 269.636 423.498 271.625 419.965C273.966 415.545 275.945 410.766 279.556 407.195C280.245 404.045 282.567 401.666 283.505 398.633C284.505 395.953 282.755 393.233 283.107 390.494C283.966 382.182 285.477 373.953 286.787 365.703C284.308 363.633 285.107 360.344 284.317 357.553C284.707 356.453 285.197 355.404 285.787 354.383C285.167 353.813 284.558 353.233 283.937 352.664C284.537 349.731 284.367 344.481 288.867 345.434C289.147 335.724 285.777 326.324 286.907 316.603C287.507 317.302 288.096 318.013 288.697 318.723L288.377 315.433C290.257 314.433 292.257 313.663 294.357 313.273C290.937 312.824 287.607 311.954 284.255 311.173C283.445 309.042 283.897 306.773 284.195 304.593C285.495 297.233 285.975 289.773 286.245 282.313C290.035 280.995 294.215 282.114 297.915 280.353C296.767 271.023 296.477 261.284 299.795 252.333C302.465 244.712 307.566 237.362 315.525 234.683C319.285 233.784 324.015 232.773 326.673 236.423C327.403 235.753 328.133 235.063 328.863 234.393C322.794 222.339 330.044 204.729 343.816 202.249M392.385 254.529C390.785 255.509 389.215 256.63 390.897 258.41C390.077 258.899 389.255 259.37 388.425 259.819C387.125 260.819 384.205 261.388 384.545 263.41C386.005 265.755 387.264 268.22 388.306 270.779C391.495 268.16 394.035 264.638 395.755 260.91C396.115 260.54 396.846 259.8 397.205 259.439C397.045 257.729 396.665 256.058 395.995 254.479C394.795 254.5 393.585 254.519 392.385 254.529V254.529Z" fill="white"/>
<path d="M421.726 344.049C426.305 338.27 433.705 335.069 441.044 335.189C463.374 335.21 485.714 335.179 508.044 335.199C518.936 335.429 529.555 343.94 530.815 355.001C499.905 354.898 469.003 355.091 438.105 354.898C438.075 375.579 438.035 396.269 438.105 416.96C461.825 416.921 485.543 416.88 509.265 416.98C509.174 409.57 509.293 402.16 509.195 394.751C497.466 394.818 485.735 394.841 474.005 394.751C464.596 394.39 457.596 386.261 455.477 377.601C480.697 377.511 505.907 377.501 531.125 377.611C531.017 390.281 531.187 402.962 531.035 415.632C530.735 426.302 521.556 435.693 511.035 436.763C486.705 436.763 462.365 436.753 438.035 436.753C430.765 436.701 424.335 432.111 420.235 426.382C417.435 422.331 416.804 417.302 416.405 412.531C416.365 395.531 416.425 378.521 416.384 361.521C416.476 355.359 417.566 348.85 421.726 344.049V344.049ZM569.255 335.888C571.767 335.208 574.385 335.159 576.977 335.189C597.617 335.251 618.267 335.12 638.907 335.239C650.607 335.739 660.886 345.841 661.337 357.579C661.358 376.55 661.358 395.529 661.337 414.511C661.127 426.14 650.827 436.98 639.019 436.781C616.319 436.681 593.619 436.851 570.917 436.701C559.597 435.441 550.907 424.632 550.827 413.441C550.667 396.14 550.847 378.82 550.737 361.521C550.647 356.421 551.567 351.181 554.267 346.781C557.436 341.25 563.116 337.379 569.255 335.888M572.816 354.35C572.856 375.69 572.726 397.039 572.876 418.379C595.046 418.44 617.228 418.369 639.397 418.407C639.465 397.049 639.407 375.688 639.425 354.317C617.226 354.309 595.016 354.27 572.816 354.35V354.35ZM0.0350022 359.43C0.506002 347.86 10.195 336.989 21.985 336.539C44.014 336.518 66.054 336.518 88.085 336.549C99.985 336.43 109.897 347.18 110.795 358.71C109.205 358.841 107.615 358.939 106.025 358.96C79.795 358.931 53.565 358.97 27.344 358.939C27.333 377.579 27.235 396.218 27.394 414.859C55.235 414.818 83.065 414.798 110.905 414.87C110.115 426.818 100.054 437.421 87.926 437.89C67.966 438.171 48.006 437.9 28.045 438.021C23.075 438.191 17.955 437.57 13.476 435.3C5.756 431.351 0.295002 423.3 0.0270022 414.56C0.0050022 396.18 -0.0249978 377.809 0.0350022 359.43V359.43ZM131.995 350.37C135.665 342.359 144.065 336.41 153.006 336.519C175.006 336.54 197.016 336.519 219.027 336.529C230.516 336.599 240.636 346.658 241.447 358.01C212.426 358.42 183.386 358.069 154.357 358.18C154.226 364.02 154.287 369.86 154.277 375.709C175.857 375.778 197.447 375.729 219.027 375.729C225.426 375.979 232.147 378.03 236.506 382.979C241.405 387.36 243.476 394.03 243.636 400.45C243.745 406.86 243.745 413.301 242.705 419.649C240.325 429.93 230.495 437.59 220.006 437.92C199.027 438.119 178.035 437.94 157.056 438.02C152.107 438.121 146.987 437.41 142.596 435C135.636 431.369 130.636 424.067 129.947 416.229C159.487 416.371 189.037 416.319 218.577 416.25C218.647 410.028 218.607 403.809 218.607 397.59C196.747 397.44 174.877 397.569 153.006 397.528C140.437 397.629 129.317 386.078 129.655 373.549C130.095 365.829 128.316 357.54 131.995 350.37V350.37ZM668.166 338.6C670.946 338.53 673.756 338.42 676.526 338.84C675.236 339.17 673.924 339.34 672.606 339.36C672.436 342.371 672.416 345.381 672.456 348.389C672.166 348.389 671.597 348.389 671.316 348.399C671.336 345.309 671.366 342.219 671.326 339.139C670.546 339.201 668.996 339.34 668.226 339.399L668.166 338.6V338.6ZM678.085 338.488C678.676 338.519 679.875 338.579 680.477 338.609C681.327 341.318 682.327 343.978 683.567 346.548C684.727 343.958 685.487 341.197 686.767 338.679C687.327 338.599 688.447 338.429 689.005 338.349C688.695 342.029 689.965 346.099 687.977 349.449C687.617 346.189 687.767 342.908 687.556 339.638C686.035 342.689 685.317 346.118 683.327 348.939C681.806 346.04 681.157 342.738 679.337 340.001C679.218 342.921 679.277 345.851 679.237 348.779L678.167 348.658C678.166 345.27 678.116 341.879 678.085 338.488V338.488Z" fill="white"/>
</g>
<defs>
<clipPath id="clip0_9_2">
<rect width="689.123" height="689.123" fill="white"/>
</clipPath>
</defs>
</svg>
